<?xml version="1.0" encoding="utf-8"?>
<!-- Uploaded to: SVG Repo, www.svgrepo.com, Generator: SVG Repo Mixer Tools -->
<svg fill="#000000" width="800px" height="800px" viewBox="0 0 32 32" version="1.1" xmlns="http://www.w3.org/2000/svg">
<title>wheelchair</title>
<path d="M22.621 23.668c-0.172-0.096-0.378-0.152-0.597-0.152-0.471 0-0.882 0.262-1.093 0.648l-0.003 0.006c-1.512 2.749-4.389 4.581-7.694 4.581-4.833 0-8.751-3.918-8.751-8.751 0-2.853 1.366-5.388 3.479-6.985l0.022-0.016c0.304-0.23 0.499-0.592 0.499-0.999 0-0.69-0.56-1.25-1.25-1.25-0.283 0-0.545 0.094-0.754 0.253l0.003-0.002c-2.744 2.074-4.499 5.332-4.499 9 0 6.213 5.037 11.25 11.25 11.25 4.248 0 7.947-2.355 9.861-5.831l0.029-0.058c0.096-0.172 0.152-0.378 0.152-0.596 0-0.471-0.262-0.882-0.647-1.094l-0.006-0.003zM31.213 24.697c-0.139-0.549-0.628-0.948-1.211-0.948-0.108 0-0.213 0.014-0.313 0.040l0.009-0.002-2.885 0.721-2.701-7.912c-0.174-0.496-0.638-0.846-1.184-0.846h-8.855l-0.385-2.5h4.312c0.69 0 1.25-0.56 1.25-1.25s-0.56-1.25-1.25-1.25v0h-4.697l-0.603-3.92c0.967-0.59 1.604-1.639 1.604-2.837 0-1.828-1.482-3.311-3.311-3.311s-3.311 1.482-3.311 3.311c0 1.558 1.076 2.864 2.525 3.217l0.023 0.005 1.534 9.975c0.095 0.604 0.612 1.060 1.235 1.060 0 0 0 0 0 0h9.033l2.783 8.154c0.174 0.496 0.638 0.846 1.184 0.846 0.107 0 0.212-0.014 0.311-0.039l-0.009 0.002 4-1c0.548-0.14 0.947-0.63 0.947-1.213 0-0.108-0.014-0.212-0.039-0.312l0.002 0.009z"></path>
</svg>